<?xml version="1.0" encoding="utf-8"?>
<!-- Generator: Adobe Illustrator 25.4.1, SVG Export Plug-In . SVG Version: 6.00 Build 0)  -->
<svg version="1.1" id="Layer_1" xmlns="http://www.w3.org/2000/svg" xmlns:xlink="http://www.w3.org/1999/xlink" x="0px" y="0px"
	 viewBox="0 0 1198.1 276.8" style="enable-background:new 0 0 1198.1 276.8;" xml:space="preserve">
<style type="text/css">
	.st0{fill:#BD6491;}
	.st1{fill:#FC9569;}
	.st2{fill:#0F3159;}
	.st3{fill:#A6BDD1;}
</style>
<g>
	<g>
		<g>
			<path class="st0" d="M47,188.1c-25.9,0-47-21.1-47-47v-5.5c0-25.9,21.1-47,47-47h19.2c11.1,0,20.2-9,20.2-20.2V47
				c0-25.9,21.1-47,47-47h3.2c25.9,0,47,21.1,47,47v18.2c0,3-2.4,5.4-5.4,5.4s-5.4-2.4-5.4-5.4V47c0-19.9-16.2-36.2-36.2-36.2h-3.2
				c-19.9,0-36.2,16.2-36.2,36.2v21.4c0,17.1-13.9,31-31,31H47c-19.9,0-36.2,16.2-36.2,36.2v5.5c0,19.9,16.2,36.2,36.2,36.2h44.8
				c0.5,0,67.9-2.9,81.1-55.7c0.7-2.9,3.7-4.7,6.6-4c2.9,0.7,4.7,3.7,4,6.6c-6.3,25.3-24.3,44.4-51.9,55.3
				c-20.4,8-38.8,8.7-39.6,8.7L47,188.1z"/>
		</g>
		<g>
			<path class="st1" d="M136.6,276.8h-3.2c-25.9,0-47-21.1-47-47v-20.5c0-3,2.4-5.4,5.4-5.4s5.4,2.4,5.4,5.4v20.5
				c0,19.9,16.2,36.2,36.2,36.2h3.2c19.9,0,36.2-16.2,36.2-36.2v-21.4c0-17.1,13.9-31,31-31H223c19.9,0,36.2-16.2,36.2-36.2v-5.5
				c0-19.9-16.2-36.2-36.2-36.2h-44.8c-0.5,0-67.9,2.9-81.1,55.7c-0.7,2.9-3.7,4.7-6.6,4c-2.9-0.7-4.7-3.7-4-6.6
				c6.3-25.3,24.3-44.4,51.9-55.3c20.4-8,38.8-8.7,39.6-8.7l45,0c25.9,0,47,21.1,47,47v5.5c0,25.9-21.1,47-47,47h-19.2
				c-11.1,0-20.2,9-20.2,20.2v21.4C183.6,255.7,162.5,276.8,136.6,276.8z"/>
		</g>
	</g>
	<g>
		<path class="st2" d="M435.5,178.4v-62.5h-72.4v62.5c0,1.8-1.5,3.3-3.3,3.3h-19.5c-1.8,0-3.3-1.5-3.3-3.3V31c0-1.8,1.5-3.3,3.3-3.3
			h19.5c1.8,0,3.3,1.5,3.3,3.3v60.4h72.4V31c0-1.8,1.5-3.3,3.3-3.3h19.7c1.8,0,3.3,1.5,3.3,3.3v147.5c0,1.8-1.5,3.3-3.3,3.3h-19.7
			C436.9,181.7,435.5,180.3,435.5,178.4z"/>
		<path class="st2" d="M597.1,178.4v-62.5h-72.4v62.5c0,1.8-1.5,3.3-3.3,3.3H502c-1.8,0-3.3-1.5-3.3-3.3V31c0-1.8,1.5-3.3,3.3-3.3
			h19.5c1.8,0,3.3,1.5,3.3,3.3v60.4h72.4V31c0-1.8,1.5-3.3,3.3-3.3h19.7c1.8,0,3.3,1.5,3.3,3.3v147.5c0,1.8-1.5,3.3-3.3,3.3h-19.7
			C598.6,181.7,597.1,180.3,597.1,178.4z"/>
		<path class="st2" d="M792.5,177.2L735.1,29.8c-0.5-1.3-1.7-2.1-3.1-2.1h-25.7c-1.4,0-2.6,0.8-3.1,2.1l-57.4,147.5
			c-0.8,2.2,0.8,4.5,3.1,4.5h20.5c1.4,0,2.6-0.9,3.1-2.2l13.5-36.5h0l16.7-44.6l15.8-42.6l23.5,63h-32.4l-7.5,24.1h49l13.8,36.5
			c0.5,1.3,1.7,2.1,3.1,2.1h21.3C791.8,181.7,793.4,179.4,792.5,177.2z"/>
	</g>
	<g>
		<path class="st3" d="M357.8,251.9v-13.5h-14.8v13.5h-5.4v-31.6h5.4v13.1h14.8v-13.1h5.4v31.6H357.8z"/>
		<path class="st3" d="M385.8,219.6c8.3,0,16.1,6.1,16.1,16.5c0,10.4-7.8,16.5-16.1,16.5c-8.3,0-16.1-6.1-16.1-16.5
			C369.7,225.7,377.5,219.6,385.8,219.6z M385.8,247.4c5.4,0,10.6-3.8,10.6-11.4s-5.3-11.4-10.6-11.4c-5.3,0-10.6,3.8-10.6,11.4
			S380.5,247.4,385.8,247.4z"/>
		<path class="st3" d="M424.3,229.2c-0.3-2-2-4.9-6.2-4.9c-3.2,0-5.4,2.1-5.4,4.5c0,2,1.2,3.5,3.7,4.1l4.5,0.9
			c5.6,1.1,8.6,4.6,8.6,9.1c0,4.9-4,9.6-11.2,9.6c-8,0-11.7-5.2-12.2-9.7l5-1.4c0.3,3.3,2.7,6.3,7.2,6.3c3.8,0,5.8-1.9,5.8-4.4
			c0-2.1-1.5-3.7-4.2-4.3l-4.5-0.9c-4.8-1-8-4.1-8-8.9c0-5.3,4.9-9.7,10.7-9.7c7.4,0,10.3,4.5,11.1,8.1L424.3,229.2z"/>
		<path class="st3" d="M441.3,239.5v12.4h-5.4v-31.6h11.7c6.1,0,10.1,4.1,10.1,9.6c0,5.6-4,9.6-10.1,9.6H441.3z M446.8,234.8
			c3.4,0,5.4-1.9,5.4-4.9c0-3-2.1-4.9-5.4-4.9h-5.6v9.8H446.8z"/>
		<path class="st3" d="M463.5,251.9v-31.6h5.4v31.6H463.5z"/>
		<path class="st3" d="M489.9,225.3v26.6h-5.4v-26.6h-10.3v-5h25.9v5H489.9z"/>
		<path class="st3" d="M521.2,243.9h-13.4l-2.9,7.9h-5.7l12.3-31.6h6.2l12.3,31.6h-5.8L521.2,243.9z M509.7,239h9.6l-4.8-12.9
			L509.7,239z"/>
		<path class="st3" d="M535.1,251.9v-31.6h5.4v26.5H555v5.1H535.1z"/>
		<path class="st3" d="M602.2,251.9v-23.3l-9.9,23.3h-4.6l-9.8-23.2v23.2h-5.2v-31.6h7.1l10.3,24.1l10.1-24.1h7.3v31.6H602.2z"/>
		<path class="st3" d="M616,251.9v-31.6h19.5v5h-14.2v8.4h12.8v4.9h-12.8v8.4h14.2v5H616z"/>
		<path class="st3" d="M642.8,251.9v-31.6H654c8.6,0,15.4,5.7,15.4,15.9c0,10.1-6.9,15.7-15.4,15.7H642.8z M653.8,247
			c5.5,0,10-3.5,10-10.8c0-7.4-4.5-11-10-11h-5.7V247H653.8z"/>
		<path class="st3" d="M675.9,251.9v-31.6h5.4v31.6H675.9z"/>
		<path class="st3" d="M687.9,236.1c0-10.3,7.7-16.5,15.9-16.5c8,0,12.8,4.7,14.2,10.3l-5,1.7c-0.9-3.8-3.9-6.9-9.2-6.9
			c-5.2,0-10.4,3.8-10.4,11.5c0,7.4,5.1,11.3,10.5,11.3c5.3,0,8.3-3.4,9.4-7l4.9,1.6c-1.4,5.4-6.2,10.5-14.3,10.5
			C695.4,252.5,687.9,246.4,687.9,236.1z"/>
		<path class="st3" d="M724.5,251.9v-31.6h5.4v31.6H724.5z"/>
		<path class="st3" d="M759.4,251.9l-15.6-23.9v23.9h-5.4v-31.6h6.8l14.4,22.4v-22.4h5.4v31.6H759.4z"/>
		<path class="st3" d="M773.4,251.9v-31.6H793v5h-14.2v8.4h12.8v4.9h-12.8v8.4H793v5H773.4z"/>
	</g>
</g>
<g>
	<path class="st1" d="M924.2,76.3l-8.4,2.4c-1.7-8.2-8-14.7-18.5-14.7c-15.8,0-24.7,14.3-24.7,29.7c0,13.1,7.2,21.1,19,21.1
		c9.1,0,16.4-4.9,20.7-14.5l7.8,3.2c-5.3,12-15.4,19.4-29.3,19.4c-15.9,0-27.2-11.8-27.2-28.7c0-25.1,17.6-38.4,34.7-38.4
		C913.5,55.9,922,65,924.2,76.3z"/>
	<path class="st1" d="M972,77.9l-6.8,32.3c-1,4.5-1,8.1-1,9.9c0,0.3,0,0.7,0.1,1.5h-8.1c-0.1-0.5-0.2-1.4-0.2-2.5c0-0.6,0-1.6,0.2-3
		c-3,3.6-7.6,6.4-13,6.4c-11.3,0-17.2-8.4-17.2-19.1c0-14.2,9.3-26.7,22.8-26.7c7.4,0,11.7,3.4,13.6,6.8l1.2-5.5H972z M934.7,103.2
		c0,6.9,3.4,11.9,10.3,11.9c8.3,0,14.4-8.6,14.4-19.9c0-6.3-3.1-11.3-10.2-11.3C939.7,84,934.7,94.4,934.7,103.2z"/>
	<path class="st1" d="M1004.9,86.4c-7,0-12.9,4.3-15.1,14.4l-4.4,20.7H977l7.6-35.9c0.8-4,1.1-7.2,1.1-7.7h8.3
		c0,1.9-0.4,5.3-0.8,6.8c3.5-5.8,9.5-7.5,14.3-7.5c0.8,0,1.8,0.1,2.5,0.2l-2,9.3C1006.9,86.5,1005.9,86.4,1004.9,86.4z"/>
	<path class="st1" d="M1019.1,102.1c-0.1,0.6-0.1,1-0.1,1.5c0,7.2,5,11.7,11.1,11.7c6.8,0,10.9-3.7,12.9-7.3l6.4,4.2
		c-3.1,5.7-10.1,10.6-19.1,10.6c-10.8,0-19.8-6.8-19.8-19.9c0-16.5,11.8-26.5,24-26.5c11.8,0,18.1,7.3,18.1,17.6
		c0,3.5-0.8,6.5-1.3,8H1019.1z M1043.5,95.2c0.1-0.4,0.2-1.1,0.2-1.8c0-4.4-2.4-9.3-9.7-9.3c-7.3,0-12.2,5.4-13.7,11.2H1043.5z"/>
	<path class="st1" d="M861.7,213.9l13.6-64.3H914l-1.7,8.3h-29.8l-4.4,20.7H905l-1.7,8.3h-26.9l-5.7,27H861.7z"/>
	<path class="st1" d="M929.3,215.3c-12.3,0-19.4-9.2-19.4-20.1c0-15,10.3-26.2,23.9-26.2c12.6,0,19.3,9.1,19.3,20
		C953.1,203.6,942.9,215.3,929.3,215.3z M918.6,194.9c0,7.7,4.4,12.7,11.1,12.7c7.5,0,14.7-6.6,14.7-18.5c0-7.5-4.2-12.6-11.2-12.6
		C925.8,176.5,918.6,183.1,918.6,194.9z"/>
	<path class="st1" d="M986.4,178.8c-7,0-12.9,4.3-15.1,14.4l-4.4,20.7h-8.4l7.6-35.9c0.8-4,1.1-7.2,1.1-7.7h8.3
		c0,1.9-0.4,5.3-0.8,6.8c3.5-5.8,9.5-7.5,14.3-7.5c0.8,0,1.8,0.1,2.5,0.2l-2,9.3C988.4,178.9,987.4,178.8,986.4,178.8z"/>
	<path class="st1" d="M1034,170.3l4.2,32.6l16.4-32.6h9.3l-23.1,43.6h-8.8l-4.4-33l-17.2,33h-9l-4.4-43.6h8.2l2.8,32.5l17.1-32.5
		H1034z"/>
	<path class="st1" d="M1109,170.3l-6.8,32.3c-1,4.5-1,8.1-1,9.9c0,0.3,0,0.7,0.1,1.5h-8.1c-0.1-0.5-0.2-1.4-0.2-2.5
		c0-0.6,0-1.6,0.2-3c-3,3.6-7.6,6.4-13,6.4c-11.3,0-17.2-8.4-17.2-19.1c0-14.2,9.3-26.7,22.8-26.7c7.3,0,11.7,3.4,13.6,6.8l1.2-5.5
		H1109z M1071.6,195.6c0,6.9,3.4,11.9,10.3,11.9c8.3,0,14.4-8.6,14.4-19.9c0-6.3-3.1-11.3-10.2-11.3
		C1076.7,176.3,1071.6,186.8,1071.6,195.6z"/>
	<path class="st1" d="M1141.9,178.8c-7,0-12.9,4.3-15.1,14.4l-4.4,20.7h-8.4l7.6-35.9c0.8-4,1.1-7.2,1.1-7.7h8.3
		c0,1.9-0.4,5.3-0.8,6.8c3.5-5.8,9.5-7.5,14.3-7.5c0.8,0,1.8,0.1,2.4,0.2l-2,9.3C1143.9,178.9,1142.9,178.8,1141.9,178.8z"/>
	<path class="st1" d="M1164.7,214.8c-11.3,0-17.2-8.4-17.2-19.1c0-14.2,9.3-26.7,22.8-26.7c7.3,0,11.7,3.4,13.6,6.8l5.8-27.6h8.4
		l-11.4,54.3c-1,4.5-1,8.1-1,9.9c0,0.3,0,0.7,0.1,1.5h-8.1c-0.1-0.5-0.2-1.4-0.2-2.5c0-0.6,0-1.5,0.2-3
		C1174.8,212,1170,214.8,1164.7,214.8z M1156.1,195.6c0,6.9,3.4,11.9,10.3,11.9c8.3,0,14.4-8.6,14.4-19.9c0-6.3-3.1-11.3-10.2-11.3
		C1161.1,176.3,1156.1,186.8,1156.1,195.6z"/>
</g>
</svg>
